<svg viewBox="0 0 304 304" xmlns="http://www.w3.org/2000/svg"><g fill-rule="evenodd"><path d="M135.3 34.474c-15.62 27.306-54.206 95.63-85.21 150.534L9.075 257.583C5.382 264.08 6.76 269.217 7.908 271.7c2.326 5.028 7.29 7.537 11.155 8.215l.78.133 264.698.006-.554-.02c4.152.255 9.664-1.24 12.677-6.194 1.926-3.18 3.31-8.589-1.073-16.278L213.637 114.37l-45.351-79.205c-5.681-9.932-12.272-12.022-16.8-12.022-4.42 0-10.818 1.964-16.181 11.331h-.006zm-69.072 159.94c30.997-54.885 69.563-123.184 85.16-150.446l.186-.297c.2.303.393.582.618.981l45.363 79.22s72.377 126.47 78.569 137.283l-247.618-.007 37.719-66.734"/><path d="M152.597 247.445c8.02 0 14.518-6.728 14.518-15.025 0-8.29-6.499-15.018-14.518-15.018-8.031 0-14.529 6.728-14.529 15.018 0 8.297 6.498 15.025 14.53 15.025M152.597 100.265c11.586 0 22.23 10.958 20.977 21.7l-9.922 75.564c-.966 6.601-4.95 11.433-11.055 11.433s-10.102-4.832-11.056-11.433l-9.927-75.564c-1.26-10.742 9.39-21.7 20.983-21.7"/></g></svg>